# xmcd
#
# Track frame offsets: 
#        150
#        23337
#        46345
#        61240
#        77747
#        93987
#        110642
#        128842
#        144422
#        173912
#        190620
#        218962
#        240610
#        258140
#
# Disc length: 3658 seconds
#
# Revision: 2
# Processed by: cddbd v1.5.2PL0 Copyright (c) Steve Scherf et al.
# Submitted via: ExactAudioCopy v1.0b1
#
DISCID=b30e480e
DTITLE=R.L. Burnside - Wish I Was in Heaven Sitting Down
DYEAR=2000
DGENRE=Blues
TTITLE0=Hard Time Killin' Floor
TTITLE1=Got Messed Up
TTITLE2=Miss Maybelle
TTITLE3=Wish I Was in Heaven Sitting Down
TTITLE4=Too Many Ups
TTITLE5=Nothin' Man
TTITLE6=See What My Buddy Done
TTITLE7=My Eyes (Keep Me in Trouble)
TTITLE8=Bad Luck City
TTITLE9=Chain of Fools
TTITLE10=R.L.'s Story
TTITLE11=Black Mattie (Featuring Robert Belfour)
TTITLE12=Pucker Up Buttercup (Featuring Paul "Wine" Jones)
TTITLE13=Laugh to Keep from Cryin' (Featuring Kenny Brown)
EXTD=
EXTT0=
EXTT1=
EXTT2=
EXTT3=
EXTT4=
EXTT5=
EXTT6=
EXTT7=
EXTT8=
EXTT9=
EXTT10=
EXTT11=
EXTT12=
EXTT13=
PLAYORDER=
